<svg width="51" height="51" viewBox="0 0 51 51" fill="none" xmlns="http://www.w3.org/2000/svg">
<g clip-path="url(#clip0_74_152)">
<g clip-path="url(#clip1_74_152)">
<g clip-path="url(#clip2_74_152)">
<path d="M0.523254 25.5C0.523254 11.6988 11.7057 0.510803 25.5 0.510803C39.2942 0.510803 50.4767 11.6988 50.4767 25.5C50.4767 39.3012 39.2942 50.4892 25.5 50.4892C11.7057 50.4892 0.523254 39.3012 0.523254 25.5ZM25.5 49.9255C38.983 49.9255 49.9133 38.9898 49.9133 25.5C49.9133 12.0102 38.983 1.07451 25.5 1.07451C12.0169 1.07451 1.08668 12.0102 1.08668 25.5C1.08668 38.9898 12.0169 49.9255 25.5 49.9255Z" fill="#219EBC"/>
<path d="M25.5 49.4896C38.7424 49.4896 49.4776 38.7491 49.4776 25.5C49.4776 12.2509 38.7424 1.51038 25.5 1.51038C12.2575 1.51038 1.52234 12.2509 1.52234 25.5C1.52234 38.7491 12.2575 49.4896 25.5 49.4896Z" fill="#219EBC"/>
<g clip-path="url(#clip3_74_152)">
<g clip-path="url(#clip4_74_152)">
<g clip-path="url(#clip5_74_152)">
<g clip-path="url(#clip6_74_152)">
<g clip-path="url(#clip7_74_152)">
<g clip-path="url(#clip8_74_152)">
<g clip-path="url(#clip9_74_152)">
<path d="M15.5998 24.9213C15.2061 24.6939 14.7472 24.6335 14.3081 24.7512C13.8848 24.8647 13.5289 25.1308 13.3001 25.5026C13.7816 26.3943 13.4685 27.5168 12.5857 28.0267C12.2903 28.1973 11.9671 28.2785 11.6482 28.2785C11.6158 28.2785 11.5835 28.277 11.5512 28.2753C12.0331 28.5619 12.5956 28.727 13.1968 28.727C14.8256 28.727 16.1715 27.5189 16.3904 25.9496C16.2765 25.5308 16.0043 25.155 15.5998 24.9213Z" fill="#3D4335"/>
<path d="M13.1968 22.273C12.7699 22.273 12.3627 22.3568 11.9898 22.5075C11.6838 22.8155 11.4944 23.2397 11.4944 23.7072C11.4944 24.6298 12.2315 25.3828 13.1473 25.4092C13.4002 24.9981 13.7937 24.7036 14.2617 24.5781C14.7471 24.448 15.2542 24.5148 15.6894 24.7662C16.0144 24.954 16.2619 25.225 16.4213 25.5367C16.4213 25.5244 16.4222 25.5123 16.4222 25.5C16.4222 23.7178 14.9782 22.273 13.1968 22.273Z" fill="#3D4335"/>
<path d="M12.4961 27.8714C13.2947 27.4101 13.5779 26.395 13.1428 25.5883C12.1303 25.5595 11.3152 24.727 11.3152 23.7072C11.3152 23.3314 11.4263 22.9811 11.6168 22.687C10.6349 23.2402 9.97137 24.2922 9.97137 25.5C9.97137 26.533 10.457 27.4518 11.2118 28.0425C11.6309 28.153 12.0919 28.1049 12.4961 27.8714Z" fill="#3D4335"/>
</g>
<g clip-path="url(#clip10_74_152)">
<path d="M17.9452 28.584V22.4737H18.9566V28.584H17.9452ZM21.507 25.1528V25.8319H19.2959V25.1528H21.507ZM19.2959 28.584V27.8302H21.765V28.584H19.2959ZM19.2959 22.4737H21.765V23.2292H19.2959V22.4737ZM26.0073 22.4822L28.1284 28.584H27.1001L25.5186 24.0085L23.9184 28.584H22.8832L25.0214 22.4822H26.0073ZM24.9535 26.6435H26.065L26.3043 27.3158H24.7227L24.9535 26.6435ZM29.4113 28.584V22.4737H30.4227L32.0636 26.2462V27.7793H31.7972L30.4227 24.3803V28.584H29.4113ZM32.403 26.2632L34.0439 22.4737H35.0536V28.584H34.0439V24.3803L32.6762 27.7793H32.403V26.2632ZM40.7129 23.0374L40.0256 23.652C39.8932 23.4912 39.7411 23.3752 39.5691 23.3039C39.3983 23.2315 39.2218 23.1953 39.0397 23.1953H39.0058V22.3752H39.0142C39.3457 22.3752 39.6551 22.4301 39.9425 22.5399C40.2298 22.6508 40.4866 22.8167 40.7129 23.0374ZM36.4705 25.5008C36.4705 25.0255 36.526 24.6039 36.6368 24.236C36.7466 23.8682 36.8982 23.5558 37.0916 23.2988C37.2851 23.0419 37.517 22.8387 37.7874 22.6893C38.0589 22.5399 38.3519 22.446 38.6664 22.4075V23.2377C38.5012 23.2819 38.3479 23.356 38.2065 23.4601C38.0662 23.5654 37.9418 23.7108 37.8332 23.8965C37.7257 24.0809 37.6414 24.3045 37.5803 24.5671C37.5204 24.8297 37.4876 25.1409 37.4819 25.5008C37.4876 25.8596 37.5204 26.1743 37.5803 26.4448C37.6414 26.7153 37.7257 26.9491 37.8332 27.146C37.9418 27.3418 38.0662 27.498 38.2065 27.6146C38.3479 27.73 38.5012 27.8098 38.6664 27.854V28.6095C38.3519 28.5699 38.0589 28.4742 37.7874 28.3226C37.517 28.1709 37.2851 27.9649 37.0916 27.7046C36.8982 27.4454 36.7466 27.1318 36.6368 26.764C36.526 26.3973 36.4705 25.9762 36.4705 25.5008ZM39.0058 25.4346H41.0285V27.7962C40.9007 27.957 40.7581 28.0883 40.6009 28.1901C40.4436 28.292 40.2779 28.3763 40.1037 28.4431C39.9294 28.5099 39.7501 28.5568 39.5657 28.584C39.3802 28.6112 39.1964 28.6248 39.0142 28.6248H39.0058V27.8964C39.0725 27.8964 39.1539 27.8919 39.2501 27.8828C39.3474 27.8749 39.447 27.8613 39.5488 27.8421C39.6506 27.8228 39.7473 27.7968 39.8389 27.764C39.9306 27.73 39.9985 27.6831 40.0426 27.6231V26.1137H39.0058V25.4346Z" fill="white"/>
</g>
</g>
</g>
</g>
</g>
</g>
</g>
</g>
</g>
</g>
<defs>
<clipPath id="clip0_74_152">
<rect width="50" height="50" fill="white" transform="translate(0.5 0.5)"/>
</clipPath>
<clipPath id="clip1_74_152">
<rect width="49.9534" height="49.9784" fill="white" transform="translate(0.523254 0.510803)"/>
</clipPath>
<clipPath id="clip2_74_152">
<rect width="49.9534" height="49.9784" fill="white" transform="translate(0.523254 0.510803)"/>
</clipPath>
<clipPath id="clip3_74_152">
<rect width="31.0571" height="6.45405" fill="white" transform="translate(9.97137 22.2729)"/>
</clipPath>
<clipPath id="clip4_74_152">
<rect width="31.0571" height="6.45405" fill="white" transform="translate(9.97137 22.2729)"/>
</clipPath>
<clipPath id="clip5_74_152">
<rect width="31.0571" height="6.45405" fill="white" transform="translate(9.97137 22.2729)"/>
</clipPath>
<clipPath id="clip6_74_152">
<rect width="31.0571" height="6.45405" fill="white" transform="translate(9.97137 22.2729)"/>
</clipPath>
<clipPath id="clip7_74_152">
<rect width="31.0571" height="6.45405" fill="white" transform="translate(9.97137 22.2729)"/>
</clipPath>
<clipPath id="clip8_74_152">
<rect width="31.0571" height="6.45405" fill="white" transform="translate(9.97137 22.2729)"/>
</clipPath>
<clipPath id="clip9_74_152">
<rect width="6.45083" height="6.45405" fill="white" transform="translate(9.97137 22.2729)"/>
</clipPath>
<clipPath id="clip10_74_152">
<rect width="23.0833" height="6.25036" fill="white" transform="translate(17.9452 22.3748)"/>
</clipPath>
</defs>
</svg>
