<svg width="100" height="101" viewBox="0 0 100 101" fill="none" xmlns="http://www.w3.org/2000/svg">
<g clip-path="url(#clip0_53_58)">
<path d="M0 100.121V0.12085H100V100.121H0Z" fill="#023047"/>
<path d="M83.105 15.1208H16.895L22.737 81.3318L50 89.1208L77.263 81.3318L83.105 15.1208Z" fill="#3070B7"/>
<path d="M50 90.1208C49.907 90.1208 49.815 90.1078 49.726 90.0818L22.463 82.2918C22.065 82.1778 21.777 81.8308 21.741 81.4178L15.898 15.2078C15.874 14.9288 15.967 14.6518 16.157 14.4448C16.347 14.2378 16.614 14.1208 16.895 14.1208H83.106C83.386 14.1208 83.654 14.2388 83.843 14.4458C84.032 14.6528 84.126 14.9298 84.102 15.2088L78.259 81.4188C78.223 81.8318 77.936 82.1788 77.537 82.2928L50.274 90.0828C50.185 90.1078 50.093 90.1208 50 90.1208ZM23.673 80.5589L50 88.0808L76.327 80.5589L82.014 16.1208H17.986L23.673 80.5589Z" fill="#1F212B"/>
<path d="M50 20.6208V83.0839L71.811 76.8529L76.709 20.6208H50Z" fill="#09ACE3"/>
<path d="M67.721 30.7H50L49 34.121L50 38.489H59.542L58.958 46.279H50L49 50.1209L50 54.0679H58.568L57.984 62.8319L50 65.5579L49 70.1209L50 73.7369L65.384 68.6739L66.747 46.279L67.721 30.7Z" fill="#FEFDEF"/>
<path d="M50 30.7V38.489H32.668L32.084 30.7H50ZM41.042 46.279L41.431 54.0679H50V46.279H41.042ZM41.821 57.9629H34.032L34.616 68.6739L50 73.7369V65.5579L42.016 62.8319L41.821 57.9629Z" fill="#EEECD9"/>
<path d="M50 31.1998C49.724 31.1998 49.5 30.9758 49.5 30.6998V20.6208C49.5 20.3448 49.724 20.1208 50 20.1208H53.5C53.776 20.1208 54 20.3448 54 20.6208C54 20.8968 53.776 21.1208 53.5 21.1208H50.5V30.6998C50.5 30.9758 50.276 31.1998 50 31.1998Z" fill="#1F212B"/>
<path d="M60.5 21.1208H56.5C56.224 21.1208 56 20.8968 56 20.6208C56 20.3448 56.224 20.1208 56.5 20.1208H60.5C60.776 20.1208 61 20.3448 61 20.6208C61 20.8968 60.776 21.1208 60.5 21.1208Z" fill="#1F212B"/>
<path d="M50 83.5838C49.893 83.5838 49.787 83.5488 49.699 83.4828C49.573 83.3878 49.5 83.2398 49.5 83.0838V76.6208C49.5 76.3448 49.724 76.1208 50 76.1208C50.276 76.1208 50.5 76.3448 50.5 76.6208V82.4208L71.343 76.4658L76.163 21.1208H63.5C63.224 21.1208 63 20.8968 63 20.6208C63 20.3448 63.224 20.1208 63.5 20.1208H76.709C76.85 20.1208 76.982 20.1799 77.077 20.2829C77.172 20.3859 77.22 20.5248 77.207 20.6638L72.309 76.8948C72.291 77.1018 72.148 77.2748 71.949 77.3328L50.138 83.5648C50.092 83.5778 50.046 83.5838 50 83.5838Z" fill="#1F212B"/>
<path d="M50 66.0579C49.724 66.0579 49.5 65.8339 49.5 65.5579V57.0679C49.5 56.7919 49.724 56.5679 50 56.5679C50.276 56.5679 50.5 56.7919 50.5 57.0679V65.5579C50.5 65.8339 50.276 66.0579 50 66.0579Z" fill="#1F212B"/>
<path d="M50 46.7787C49.724 46.7787 49.5 46.5547 49.5 46.2787V41.4897C49.5 41.2137 49.724 40.9897 50 40.9897C50.276 40.9897 50.5 41.2137 50.5 41.4897V46.2787C50.5 46.5547 50.276 46.7787 50 46.7787Z" fill="#1F212B"/>
<path d="M50 74.2369C49.947 74.2369 49.895 74.2289 49.844 74.2119L34.46 69.1489C34.265 69.0849 34.128 68.9069 34.117 68.7009L33.532 57.9909C33.524 57.8539 33.574 57.7199 33.668 57.6199C33.763 57.5199 33.894 57.4639 34.031 57.4639H41.821C42.09 57.4639 42.31 57.6759 42.321 57.9439L42.502 62.4699L50 65.0299L57.508 62.4659L58.034 54.5689H41.432C41.165 54.5689 40.946 54.3599 40.933 54.0939L40.543 46.3039C40.536 46.1669 40.585 46.0329 40.68 45.9339C40.775 45.8349 40.906 45.7789 41.042 45.7789H58.494L59.003 38.9899H32.668C32.406 38.9899 32.189 38.7879 32.169 38.5279L31.585 30.7379C31.575 30.5989 31.623 30.4619 31.718 30.3609C31.813 30.2589 31.946 30.2009 32.084 30.2009H67.721C67.859 30.2009 67.991 30.2579 68.085 30.3589C68.179 30.4599 68.229 30.5949 68.22 30.7329L65.883 68.7059C65.87 68.9109 65.735 69.0869 65.54 69.1509L50.156 74.2139C50.105 74.2279 50.053 74.2369 50 74.2369ZM35.097 68.3059L50 73.2099L64.905 68.3039L67.188 31.1999H32.623L33.132 37.9899H59.542C59.681 37.9899 59.813 38.0479 59.908 38.1499C60.003 38.2519 60.051 38.3879 60.041 38.5269L59.457 46.3159C59.437 46.5769 59.22 46.7779 58.958 46.7779H41.567L41.907 53.5679H58.568C58.707 53.5679 58.839 53.6249 58.933 53.7259C59.027 53.8269 59.076 53.9629 59.067 54.1009L58.483 62.8639C58.469 63.0649 58.337 63.2389 58.145 63.3039L50.161 66.0309C50.057 66.0669 49.942 66.0669 49.839 66.0309L41.855 63.3039C41.659 63.2369 41.525 63.0569 41.516 62.8509L41.341 58.4629H34.56L35.097 68.3059Z" fill="#1F212B"/>
</g>
<defs>
<clipPath id="clip0_53_58">
<rect width="100" height="100" fill="white" transform="translate(0 0.12085)"/>
</clipPath>
</defs>
</svg>
