<svg width="96" height="96" viewBox="0 0 96 96" fill="none" xmlns="http://www.w3.org/2000/svg">
<g clip-path="url(#clip0_174_25)">
<path d="M0 96V0H96V96H0Z" fill="#056798"/>
<path d="M48 8C25.908 8 8 25.908 8 48C8 65.774 19.602 80.8219 35.64 86.0319H60.36C76.398 80.8219 88 65.774 88 48C88 25.908 70.092 8 48 8Z" fill="url(#paint0_linear_174_25)"/>
<path opacity="0.05" d="M60.02 83.992L60 72.396C60 70.518 59.56 68.684 58.716 67.022C69.998 64.756 75.488 58.086 75.488 46.668C75.488 42.158 74.158 38.176 71.536 34.828C71.736 34.194 71.884 33.538 71.976 32.866C72.352 30.128 71.93 28.338 71.59 26.898L71.536 26.666C71.164 25.074 70.718 23.938 70.7 23.89L70.478 23.326L70.256 22.762L69.652 22.698L69.046 22.634C69.046 22.634 68.648 22.592 68.044 22.592C67.206 22.592 65.964 22.676 64.79 23.074L64.398 23.206C62.918 23.704 61.52 24.176 59.564 25.344C58.992 25.686 58.366 26.076 57.696 26.512C54.668 25.762 51.41 25.38 48 25.38C44.556 25.38 41.27 25.764 38.222 26.522C37.544 26.082 36.914 25.688 36.338 25.344C34.382 24.176 32.984 23.706 31.504 23.206L31.112 23.074C29.942 22.676 28.698 22.592 27.86 22.592C27.256 22.592 26.858 22.634 26.858 22.634L26.254 22.698L25.654 22.76L25.43 23.322L25.204 23.888C25.184 23.94 24.738 25.076 24.366 26.67L24.312 26.9C23.972 28.338 23.55 30.13 23.926 32.866C24.022 33.558 24.176 34.236 24.386 34.888C21.816 38.22 20.514 42.18 20.514 46.668C20.514 58.058 26.01 64.724 37.308 67.008C36.92 67.784 36.618 68.604 36.404 69.456C36.01 69.59 35.648 69.68 35.328 69.73C34.852 69.802 34.354 69.838 33.85 69.838C32.478 69.838 31.4 69.57 30.98 69.32C30.354 68.948 29.236 67.866 28.152 66.284C27.226 64.934 25.782 63.168 24.168 62.43C22.772 61.792 21.294 61.426 20.11 61.426C19.834 61.426 19.58 61.446 19.358 61.482C18.324 61.646 17.46 62.214 16.99 63.042C16.584 63.756 16.52 64.588 16.814 65.324C17.252 66.42 18.516 67.294 19.5 67.834C19.984 68.1 21.03 69.072 21.64 70.052C22.098 70.788 22.31 71.312 22.604 72.036C22.778 72.466 22.97 72.934 23.23 73.5C24.17 75.544 27.104 77.348 27.436 77.546C29.048 78.512 31.758 78.822 33.75 78.912L33.996 78.918H33.998C34.478 78.918 35.138 78.872 36.006 78.776V84.002C36.01 85.06 34.932 85.3 33.506 85.278L34.6 85.646C38.79 87.144 43.29 88 48 88C52.71 88 57.21 87.144 61.406 85.648L62.812 85.124C61.39 85.076 60.032 84.844 60.02 83.992Z" fill="black"/>
<path opacity="0.07" d="M61.5619 85.594C60.7499 85.688 58.9999 85.376 58.9999 84.004V72.396C58.9999 70.208 58.3439 68.094 57.1279 66.292C68.9579 64.378 74.4859 58.106 74.4859 46.668C74.4859 42.194 73.1139 38.28 70.4079 35.024C70.6819 34.294 70.8739 33.524 70.9839 32.73C71.3339 30.178 70.9519 28.558 70.6159 27.128L70.5619 26.896C70.2059 25.374 69.7859 24.302 69.7679 24.258L69.5459 23.694L68.9399 23.63C68.9399 23.63 68.5839 23.592 68.0419 23.592C67.2799 23.592 66.1539 23.666 65.1099 24.022L64.7179 24.154C63.2899 24.636 61.9399 25.09 60.0759 26.202C59.4119 26.598 58.6719 27.064 57.8739 27.59C54.8079 26.788 51.49 26.38 48 26.38C44.476 26.38 41.13 26.79 38.042 27.6C37.236 27.07 36.492 26.602 35.824 26.202C33.96 25.09 32.61 24.634 31.182 24.154L30.79 24.022C29.748 23.668 28.62 23.592 27.858 23.592C27.316 23.592 26.96 23.63 26.96 23.63L26.356 23.694L26.13 24.26C26.112 24.304 25.692 25.376 25.336 26.898L25.282 27.13C24.944 28.56 24.562 30.178 24.914 32.73C25.026 33.544 25.226 34.332 25.51 35.078C22.856 38.318 21.512 42.212 21.512 46.668C21.512 58.074 27.044 64.344 38.884 66.28C38.094 67.46 37.542 68.79 37.258 70.208C36.598 70.468 36 70.64 35.476 70.72C34.95 70.8 34.402 70.84 33.848 70.84C32.468 70.84 31.142 70.582 30.468 70.182C29.588 69.66 28.354 68.354 27.324 66.852C26.624 65.832 25.23 64.018 23.748 63.342C22.478 62.762 21.152 62.428 20.106 62.428C19.886 62.428 19.686 62.444 19.51 62.472C18.778 62.588 18.174 62.976 17.854 63.54C17.598 63.988 17.556 64.506 17.736 64.956C18.094 65.852 19.42 66.656 19.974 66.96C20.644 67.328 21.812 68.448 22.482 69.528C22.984 70.336 23.222 70.922 23.524 71.662C23.694 72.08 23.88 72.536 24.132 73.086C24.794 74.524 26.838 76.03 27.942 76.692C29.45 77.596 32.25 77.848 33.786 77.916L34.008 77.92C34.606 77.92 35.608 77.83 36.998 77.65V84.004C36.998 85.562 35.016 85.624 34.53 85.624C34.468 85.624 35.536 85.992 35.536 85.992C39.462 87.28 43.644 88 48 88C52.356 88 56.5379 87.28 60.4619 85.994C60.4619 85.994 61.6239 85.586 61.5619 85.594Z" fill="black"/>
<path d="M73.4879 46.668C73.4879 42.048 71.9239 38.216 69.2539 35.212C69.5439 34.562 69.8459 33.69 69.9959 32.594C70.3399 30.094 69.9339 28.594 69.5899 27.126C69.2459 25.658 68.8399 24.626 68.8399 24.626C68.8399 24.626 66.9959 24.438 65.4339 24.97C63.8719 25.502 62.5279 25.908 60.5899 27.064C59.6839 27.604 58.7719 28.196 58.0499 28.676C54.9639 27.82 51.5699 27.38 47.9999 27.38C44.3979 27.38 40.9739 27.822 37.8659 28.684C37.1419 28.202 36.2239 27.606 35.3119 27.062C33.3739 25.906 32.0299 25.5 30.4679 24.968C28.9059 24.436 27.0619 24.624 27.0619 24.624C27.0619 24.624 26.6559 25.656 26.3119 27.124C25.9679 28.592 25.5619 30.092 25.9059 32.592C26.0599 33.716 26.3719 34.604 26.6699 35.258C24.0499 38.244 22.514 42.052 22.514 46.666C22.514 58.632 28.9779 64.094 40.7559 65.536C39.3819 66.988 38.4599 68.848 38.1499 70.918C37.3759 71.258 36.4839 71.578 35.6259 71.706C33.4179 72.04 31.0839 71.706 29.9599 71.04C28.8359 70.374 27.5019 68.874 26.5019 67.414C25.6579 66.182 24.4399 64.752 23.336 64.248C21.878 63.582 20.46 63.332 19.67 63.456C18.878 63.582 18.504 64.164 18.67 64.582C18.836 64.998 19.628 65.624 20.462 66.082C21.296 66.54 22.5879 67.79 23.3379 68.998C24.1739 70.346 24.3379 71.124 25.0459 72.664C25.5439 73.748 27.2479 75.102 28.4619 75.83C29.5039 76.456 31.5859 76.812 33.8379 76.914C34.6159 76.95 36.4539 76.722 38.0039 76.502V84.002C38.0039 85.28 36.8339 86.252 35.6219 86.028C39.5119 87.336 43.6659 88 47.9999 88C52.3319 88 56.4859 87.336 60.3799 86.032C59.1699 86.254 57.9999 85.282 57.9999 84.004V72.396C57.9999 69.738 56.9459 67.336 55.2539 65.546C66.9459 64.142 73.4879 58.81 73.4879 46.668ZM22.478 65.454C22.17 65.296 22.004 65.004 22.108 64.798C22.212 64.592 22.548 64.554 22.856 64.712C23.164 64.87 23.3299 65.162 23.2259 65.368C23.1219 65.574 22.786 65.612 22.478 65.454ZM24.9019 66.964C24.7399 67.14 24.3919 67.084 24.1239 66.84C23.8559 66.596 23.7699 66.254 23.9319 66.078C24.0939 65.902 24.4419 65.958 24.7099 66.202C24.9779 66.446 25.0639 66.788 24.9019 66.964ZM26.4099 69.464C26.2059 69.608 25.8599 69.474 25.6379 69.164C25.4159 68.854 25.4019 68.484 25.6059 68.34C25.8099 68.196 26.1559 68.33 26.3779 68.64C26.5979 68.95 26.6139 69.32 26.4099 69.464ZM28.5759 71.346C28.4379 71.57 28.0459 71.58 27.7019 71.37C27.3579 71.16 27.1899 70.808 27.3279 70.584C27.4659 70.36 27.8579 70.35 28.2019 70.56C28.5459 70.77 28.7139 71.122 28.5759 71.346ZM30.6239 73.188C30.1979 73.136 29.8819 72.87 29.9179 72.594C29.9519 72.318 30.3259 72.138 30.7499 72.19C31.1759 72.242 31.4919 72.508 31.4559 72.784C31.4219 73.058 31.0499 73.24 30.6239 73.188ZM33.9259 73.666C33.4719 73.64 33.1179 73.38 33.1359 73.088C33.1539 72.796 33.5359 72.578 33.9899 72.604C34.4439 72.63 34.7979 72.89 34.7799 73.182C34.7619 73.476 34.3799 73.692 33.9259 73.666ZM37.0419 73.354C36.5579 73.354 36.1659 73.102 36.1659 72.792C36.1659 72.482 36.5579 72.23 37.0419 72.23C37.5259 72.23 37.9179 72.482 37.9179 72.792C37.9179 73.102 37.5239 73.354 37.0419 73.354Z" fill="white"/>
</g>
<defs>
<linearGradient id="paint0_linear_174_25" x1="8" y1="47.016" x2="88" y2="47.016" gradientUnits="userSpaceOnUse">
<stop stop-color="#4C4C4C"/>
<stop offset="1" stop-color="#343434"/>
</linearGradient>
<clipPath id="clip0_174_25">
<rect width="96" height="96" fill="white"/>
</clipPath>
</defs>
</svg>
