<svg width="100" height="101" viewBox="0 0 100 101" fill="none" xmlns="http://www.w3.org/2000/svg">
<g clip-path="url(#clip0_53_47)">
<path d="M0 100.121V0.12085H100V100.121H0Z" fill="#023047"/>
<path d="M49.9729 35.5376L39.3604 17.3563C39.1562 17.0043 38.7791 16.7876 38.3708 16.7876H8.18956C7.30622 16.7876 6.75622 17.7459 7.20206 18.5105L48.9854 90.0938C49.427 90.85 50.5208 90.85 50.9624 90.0938L92.7458 18.5105C93.1895 17.7459 92.6395 16.7876 91.7562 16.7876H61.5749C61.1687 16.7876 60.7916 17.0043 60.5854 17.3563L49.9729 35.5376Z" fill="url(#paint0_linear_53_47)"/>
<path d="M60.9165 16.7876L49.9728 35.5376L39.029 16.7876H23.2207L49.9728 62.6209L76.7248 16.7876H60.9165Z" fill="url(#paint1_linear_53_47)"/>
<path opacity="0.05" d="M77.625 17.3126L50.8729 63.1459L49.9729 64.6876L49.0729 63.1459L22.3208 17.3126L22.0146 16.7876H20.8083L21.4208 17.8376L48.1729 63.6709L49.9729 66.7542L51.7729 63.6709L78.525 17.8376L79.1375 16.7876H77.9312L77.625 17.3126Z" fill="black"/>
<path opacity="0.07" d="M76.725 16.7876L49.973 62.6209L23.2209 16.7876H22.0146L22.3209 17.3126L49.073 63.1459L49.973 64.6876L50.873 63.1459L77.625 17.3126L77.9313 16.7876H76.7354H76.725Z" fill="black"/>
</g>
<defs>
<linearGradient id="paint0_linear_53_47" x1="7.04372" y1="53.7251" x2="92.902" y2="53.7251" gradientUnits="userSpaceOnUse">
<stop stop-color="#33C481"/>
<stop offset="1" stop-color="#21A366"/>
</linearGradient>
<linearGradient id="paint1_linear_53_47" x1="23.2207" y1="39.7043" x2="76.7248" y2="39.7043" gradientUnits="userSpaceOnUse">
<stop offset="0.189" stop-color="#313437"/>
<stop offset="1" stop-color="#45494D"/>
</linearGradient>
<clipPath id="clip0_53_47">
<rect width="100" height="100" fill="white" transform="translate(0 0.12085)"/>
</clipPath>
</defs>
</svg>
