<svg width="100" height="101" viewBox="0 0 100 101" fill="none" xmlns="http://www.w3.org/2000/svg">
<g clip-path="url(#clip0_53_41)">
<path d="M0 100.121V0.12085H100V100.121H0Z" fill="#023047"/>
<path d="M50 9.49585C27.6 9.49585 9.375 27.7208 9.375 50.1208C9.375 72.5209 27.6 90.7458 50 90.7458C72.4 90.7458 90.625 72.5209 90.625 50.1208C90.625 27.7208 72.4 9.49585 50 9.49585ZM50 15.7458C68.9531 15.7458 84.375 31.1677 84.375 50.1208C84.375 69.074 68.9531 84.4958 50 84.4958C31.0469 84.4958 15.625 69.074 15.625 50.1208C15.625 31.1677 31.0469 15.7458 50 15.7458ZM63.3484 31.6089C63.1203 31.6151 55.4943 31.1884 51.0193 44.3103C49.8068 43.3134 44.0637 36.4661 37.7075 41.2036C35.4262 42.9098 33.9193 46.9764 37.3474 50.7983C39.388 52.9827 40.5643 53.8488 40.0268 55.5957C38.9237 59.1832 33.3367 57.5386 33.8867 55.7605C34.0492 55.2292 34.3092 55.2201 34.6436 54.1858C35.5748 51.1358 31.378 49.6438 30.4749 52.55C29.9561 54.2438 30.7609 57.3038 35.0953 58.6413C40.1702 60.2007 44.4651 57.4349 45.0745 53.8318C45.462 51.5755 44.4408 49.8998 42.5721 47.7404L41.0523 46.0559C40.1304 45.1278 39.8123 43.5603 40.7654 42.3572C41.5685 41.3384 42.7142 40.9079 44.5923 41.4172C47.3329 42.161 48.5546 44.0638 50.5921 45.5981C50.4452 46.0794 49.3884 49.4894 48.4009 55.4675C46.9447 63.1113 45.8289 67.3069 42.9383 69.7131C42.357 70.135 41.5242 70.7558 40.271 70.7995C40.0367 70.8089 38.5707 70.4607 40.0269 69.292C41.8613 68.2888 40.8668 65.1059 38.2325 65.1965C37.045 65.234 35.2401 66.3479 35.3089 68.3948C35.3776 70.5073 37.345 72.0928 40.3138 71.9897C41.9012 71.9366 45.4413 71.2935 48.9319 67.1435C53.7288 61.5185 54.6419 54.8389 55.9388 47.6733C62.1606 48.4108 65.2395 45.5264 65.2832 43.3764C65.3488 40.4514 61.907 40.5542 61.4258 42.7417C61.1946 43.8042 63.0466 44.7614 61.6028 45.6958C60.5809 46.3583 58.7458 46.8247 56.1646 46.4465C57.4052 39.6028 58.4663 32.8943 63.2569 32.738C63.585 32.7193 64.779 32.7562 64.8072 33.5437C64.8228 34.1937 63.9886 34.7079 64.0198 35.8142C64.0667 37.0704 65.0189 37.8906 66.4002 37.8406C68.2471 37.7749 68.7752 35.9824 68.7439 35.0574C68.6658 32.8824 66.3765 31.512 63.3484 31.6089Z" fill="#FFFBFB"/>
</g>
<defs>
<clipPath id="clip0_53_41">
<rect width="100" height="100" fill="white" transform="translate(0 0.12085)"/>
</clipPath>
</defs>
</svg>
