<svg width="96" height="96" viewBox="0 0 96 96" fill="none" xmlns="http://www.w3.org/2000/svg">
<g clip-path="url(#clip0_174_34)">
<path d="M0 96V0H96V96H0Z" fill="#056798"/>
<path d="M84 74C84 79.524 79.524 84 74 84H22C16.478 84 12 79.524 12 74V22C12 16.476 16.478 12 22 12H74C79.524 12 84 16.476 84 22V74Z" fill="#0078D4"/>
<path opacity="0.05" d="M60 74V53.802C60 50.424 58.362 48.406 55.616 48.406C53.986 48.406 52.788 49.324 52.058 51.134C52.024 51.262 51.976 51.784 51.996 53.362L52 74H38V36H52V38.122C54.044 36.712 56.55 36 59.476 36C68.57 36 73.998 42.186 73.998 52.548L74 74H60ZM22 74V36H28.914C24.908 36 22 33.056 22 28.998C22 24.944 24.956 22 29.028 22C33.052 22 35.918 24.862 36 28.958C36 33.046 33.042 36 28.97 36H36V74H22Z" fill="black"/>
<path opacity="0.07" d="M61 73V53.802C61 49.856 58.938 47.406 55.616 47.406C53.026 47.406 51.746 49.23 51.13 50.76C50.966 51.158 50.988 52.738 50.996 53.412L51 73H39V37H51V40.276C52.59 38.63 55.15 37 59.476 37C67.942 37 72.998 42.812 72.998 52.548L73 73H61ZM23 73V37H35V73H23ZM28.914 35C25.488 35 23 32.476 23 28.998C23 25.522 25.536 23 29.028 23C32.476 23 34.93 25.458 35 28.978C35 32.476 32.464 35 28.97 35H28.914Z" fill="black"/>
<path d="M24 38H34V72H24V38ZM28.97 34H28.914C25.93 34 24 31.776 24 28.998C24 26.16 25.99 24 29.028 24C32.07 24 33.944 26.16 34 28.998C34 31.774 32.07 34 28.97 34ZM72 72H62V53.802C62 49.406 59.55 46.406 55.616 46.406C52.614 46.406 50.99 48.43 50.202 50.386C49.914 51.086 50 53.022 50 54V72H40V38H50V43.232C51.442 41 53.7 38 59.476 38C66.632 38 71.998 42.5 71.998 52.548L72 72Z" fill="white"/>
</g>
<defs>
<clipPath id="clip0_174_34">
<rect width="96" height="96" fill="white"/>
</clipPath>
</defs>
</svg>
