<svg width="71" height="58" viewBox="0 0 71 58" fill="none" xmlns="http://www.w3.org/2000/svg">
<path d="M49.9287 50.75H20.5589C14.0813 50.75 8.81091 46.4133 8.81091 41.0833V16.9167C8.81091 11.5867 14.0813 7.25 20.5589 7.25H49.9287C56.4063 7.25 61.6767 11.5867 61.6767 16.9167V41.0833C61.6767 46.4133 56.4063 50.75 49.9287 50.75Z" fill="url(#paint0_linear_36_109)"/>
<path opacity="0.05" d="M49.9288 19.3333C50.1902 19.3333 50.4384 19.3708 50.6807 19.4227L39.1912 28.878C38.1016 29.7733 36.6727 30.2204 35.2439 30.2204C33.815 30.2204 32.3862 29.7733 31.2966 28.878L19.8071 19.4227C20.0494 19.3708 20.2975 19.3333 20.5589 19.3333H49.9288ZM52.7571 21.1313C52.8203 21.3307 52.8658 21.5349 52.8658 21.75V36.25C52.8658 36.4651 52.8203 36.6693 52.7571 36.8687L43.1943 29L52.7571 21.1313ZM17.7306 21.1313L27.2934 29L17.7321 36.8675C17.6675 36.6693 17.6219 36.4651 17.6219 36.25V21.75C17.6219 21.5349 17.6675 21.3307 17.7306 21.1313ZM41.1032 30.6965L50.6807 38.5773C50.4384 38.6292 50.1902 38.6667 49.9288 38.6667H20.5589C20.2975 38.6667 20.0494 38.6292 19.8071 38.5773L29.3846 30.6965C31.0249 31.981 33.1292 32.6359 35.2439 32.6359C37.3585 32.6359 39.4628 31.981 41.1032 30.6965ZM49.9288 18.125H20.5589C20.2006 18.125 19.832 18.1673 19.4311 18.2555C18.923 18.3667 18.5265 18.6917 18.39 19.1098C18.2549 19.5218 18.3944 19.9605 18.7541 20.265C18.4766 20.0438 18.108 19.923 17.7306 19.923C17.6028 19.923 17.4751 19.9363 17.3488 19.9641C16.8422 20.0765 16.4457 20.4027 16.3106 20.8208C16.2048 21.1519 16.1534 21.4552 16.1534 21.75V36.25C16.1534 36.5448 16.2048 36.8481 16.312 37.178C16.4471 37.5961 16.8422 37.9223 17.3503 38.0347C17.4766 38.0625 17.6043 38.0758 17.7321 38.0758C18.1095 38.0758 18.4781 37.9562 18.7541 37.735C18.3944 38.0408 18.2549 38.4794 18.39 38.8902C18.5265 39.3071 18.923 39.6333 19.4311 39.7445C19.832 39.8327 20.2006 39.875 20.5589 39.875H49.9288C50.2871 39.875 50.6557 39.8327 51.0566 39.7445C51.5647 39.6333 51.9612 39.3083 52.0978 38.8902C52.2329 38.4782 52.0934 38.0395 51.7336 37.735C52.0111 37.9562 52.3797 38.0758 52.7556 38.0758C52.8834 38.0758 53.0112 38.0625 53.1375 38.0347C53.6441 37.9223 54.0406 37.5961 54.1757 37.178C54.2829 36.8481 54.3343 36.5448 54.3343 36.25V21.75C54.3343 21.4552 54.2829 21.1519 54.1757 20.822C54.0406 20.4039 53.6456 20.0777 53.1375 19.9653C53.0112 19.9375 52.8834 19.9242 52.7556 19.9242C52.3782 19.9242 52.0097 20.0438 51.7321 20.265C52.0919 19.9592 52.2314 19.5206 52.0963 19.1098C51.9597 18.6929 51.5632 18.3667 51.0551 18.2555C50.6557 18.1673 50.2871 18.125 49.9288 18.125Z" fill="black"/>
<path opacity="0.07" d="M49.9288 18.729H20.5589C20.2608 18.729 19.9627 18.764 19.6191 18.839C19.365 18.8945 19.1668 19.0577 19.0992 19.2655C19.0317 19.4745 19.1037 19.6969 19.2887 19.8491L30.7782 29.3043C31.9691 30.2843 33.5551 30.8244 35.2439 30.8244C36.9326 30.8244 38.5186 30.2843 39.7096 29.3055L51.1991 19.8503C51.3841 19.6981 51.4575 19.4745 51.3885 19.2667C51.3209 19.0577 51.1212 18.8958 50.8686 18.8402C50.525 18.764 50.2269 18.729 49.9288 18.729ZM52.7571 20.527C52.5648 20.527 52.3768 20.5886 52.2373 20.7034L42.6759 28.5721C42.3896 28.8077 42.3896 29.1908 42.6759 29.4264L52.2373 37.2938C52.3768 37.4086 52.5648 37.4703 52.7571 37.4703C52.8203 37.4703 52.8849 37.463 52.948 37.4497C53.2021 37.3941 53.3989 37.2298 53.4664 37.022C53.5575 36.7404 53.6 36.4951 53.6 36.2498V21.7498C53.6 21.5045 53.5575 21.2593 53.4664 20.9765C53.3989 20.7675 53.2006 20.6043 52.948 20.5488C52.8849 20.5343 52.8203 20.527 52.7571 20.527ZM17.7306 20.527C17.6675 20.527 17.6029 20.5343 17.5397 20.5475C17.2857 20.6031 17.0889 20.7675 17.0213 20.9753C16.9303 21.2593 16.8877 21.5045 16.8877 21.7498V36.2498C16.8877 36.4951 16.9303 36.7404 17.0213 37.0232C17.0889 37.2322 17.2871 37.3953 17.5397 37.4509C17.6029 37.4654 17.6675 37.4715 17.7306 37.4715C17.923 37.4715 18.111 37.4098 18.2505 37.295L27.8118 29.4276C28.0982 29.192 28.0982 28.8089 27.8118 28.5733L18.2505 20.7046C18.111 20.5898 17.923 20.527 17.7306 20.527ZM41.1032 30.0922C40.9211 30.0922 40.739 30.1478 40.5965 30.2589C39.1354 31.402 37.2351 32.0315 35.2439 32.0315C33.2526 32.0315 31.3509 31.402 29.8912 30.2589C29.7488 30.1478 29.5667 30.0922 29.3846 30.0922C29.1966 30.0922 29.0086 30.1514 28.8647 30.2686L19.2872 38.1493C19.1022 38.3016 19.0288 38.5251 19.0978 38.733C19.1668 38.9408 19.365 39.1039 19.6176 39.1595C19.9627 39.2356 20.2608 39.2707 20.5589 39.2707H49.9288C50.2269 39.2707 50.525 39.2356 50.8686 39.1607C51.1227 39.1051 51.3209 38.942 51.3885 38.7342C51.456 38.5263 51.3841 38.3028 51.1991 38.1505L41.6215 30.2698C41.4791 30.1514 41.2911 30.0922 41.1032 30.0922Z" fill="black"/>
<path d="M52.7571 21.1315L43.1943 29.0002L52.7557 36.8676C52.8203 36.6695 52.8658 36.4652 52.8658 36.2502V21.7502C52.8658 21.5351 52.8203 21.3309 52.7571 21.1315ZM39.1912 28.8781L50.6807 19.4229C50.4384 19.371 50.1902 19.3335 49.9288 19.3335H20.5589C20.2975 19.3335 20.0494 19.371 19.8071 19.4229L31.2966 28.8781C33.4743 30.6677 37.0134 30.6677 39.1912 28.8781ZM17.7306 21.1315C17.6675 21.3309 17.6219 21.5351 17.6219 21.7502V36.2502C17.6219 36.4652 17.6675 36.6695 17.7306 36.8688L27.2934 29.0002L17.7306 21.1315ZM35.2439 32.636C33.1292 32.636 31.0249 31.9811 29.3846 30.6967L19.8071 38.5774C20.0494 38.6294 20.2975 38.6668 20.5589 38.6668H49.9288C50.1902 38.6668 50.4384 38.6294 50.6807 38.5774L41.1032 30.6967C39.4629 31.9811 37.3585 32.636 35.2439 32.636Z" fill="#F9F9F9"/>
<defs>
<linearGradient id="paint0_linear_36_109" x1="35.2438" y1="50.75" x2="35.2438" y2="7.50012" gradientUnits="userSpaceOnUse">
<stop stop-color="#1AC8FC"/>
<stop offset="0.258" stop-color="#1BB6FA"/>
<stop offset="0.775" stop-color="#1C86F5"/>
<stop offset="1" stop-color="#1D70F2"/>
</linearGradient>
</defs>
</svg>
