<svg width="48" height="50" viewBox="0 0 48 50" fill="none" xmlns="http://www.w3.org/2000/svg">
<g clip-path="url(#clip0_55_135)">
<path d="M0.380981 50V0H48V50H0.380981Z" fill="#022232"/>
<path d="M24.1905 4.1665C13.2322 4.1665 4.34924 13.4936 4.34924 24.9998C4.34924 34.2571 10.1042 42.0946 18.0596 44.8081H30.3215C38.2768 42.0946 44.0318 34.2571 44.0318 24.9998C44.0318 13.4936 35.1488 4.1665 24.1905 4.1665Z" fill="url(#paint0_linear_55_135)"/>
<path opacity="0.05" d="M30.1528 43.7457L30.1429 37.7062C30.1429 36.728 29.9246 35.7728 29.5059 34.9072C35.1022 33.727 37.8254 30.253 37.8254 24.3062C37.8254 21.9572 37.1657 19.8833 35.8651 18.1395C35.9643 17.8093 36.0377 17.4676 36.0833 17.1176C36.2698 15.6916 36.0605 14.7593 35.8919 14.0093L35.8651 13.8885C35.6805 13.0593 35.4593 12.4676 35.4504 12.4426L35.3403 12.1489L35.2302 11.8551L34.9305 11.8218L34.63 11.7885C34.63 11.7885 34.4325 11.7666 34.1329 11.7666C33.7173 11.7666 33.1012 11.8104 32.5188 12.0176L32.3244 12.0864C31.5903 12.3458 30.8968 12.5916 29.9266 13.1999C29.6429 13.3781 29.3323 13.5812 29 13.8083C27.498 13.4176 25.8819 13.2187 24.1905 13.2187C22.4821 13.2187 20.8522 13.4187 19.3403 13.8135C19.004 13.5843 18.6915 13.3791 18.4058 13.1999C17.4355 12.5916 16.7421 12.3468 16.0079 12.0864L15.8135 12.0176C15.2331 11.8104 14.6161 11.7666 14.2004 11.7666C13.9008 11.7666 13.7034 11.7885 13.7034 11.7885L13.4038 11.8218L13.1062 11.8541L12.995 12.1468L12.8829 12.4416C12.873 12.4687 12.6518 13.0604 12.4673 13.8906L12.4405 14.0104C12.2718 14.7593 12.0625 15.6926 12.249 17.1176C12.2966 17.4781 12.373 17.8312 12.4772 18.1708C11.2024 19.9062 10.5566 21.9687 10.5566 24.3062C10.5566 30.2385 13.2827 33.7103 18.8869 34.8999C18.6944 35.3041 18.5446 35.7312 18.4385 36.1749C18.2431 36.2447 18.0635 36.2916 17.9048 36.3176C17.6687 36.3551 17.4216 36.3739 17.1716 36.3739C16.4911 36.3739 15.9564 36.2343 15.748 36.1041C15.4375 35.9103 14.8829 35.3468 14.3452 34.5228C13.8859 33.8197 13.1696 32.8999 12.3691 32.5155C11.6766 32.1833 10.9435 31.9926 10.3562 31.9926C10.2193 31.9926 10.0933 32.003 9.98314 32.0218C9.47025 32.1072 9.04167 32.403 8.80854 32.8343C8.60715 33.2062 8.57541 33.6395 8.72124 34.0228C8.9385 34.5937 9.56548 35.0489 10.0536 35.3301C10.2937 35.4687 10.8125 35.9749 11.1151 36.4853C11.3423 36.8687 11.4474 37.1416 11.5933 37.5187C11.6796 37.7426 11.7748 37.9864 11.9038 38.2812C12.37 39.3458 13.8254 40.2853 13.9901 40.3885C14.7897 40.8916 16.1339 41.053 17.122 41.0999L17.2441 41.103H17.245C17.4831 41.103 17.8105 41.0791 18.2411 41.0291V43.751C18.2431 44.302 17.7083 44.427 17.001 44.4155L17.5437 44.6072C19.622 45.3874 21.8542 45.8332 24.1905 45.8332C26.5268 45.8332 28.7589 45.3874 30.8403 44.6082L31.5377 44.3353C30.8323 44.3103 30.1587 44.1895 30.1528 43.7457Z" fill="black"/>
<path opacity="0.07" d="M30.9177 44.5798C30.5149 44.6288 29.6468 44.4663 29.6468 43.7517V37.7058C29.6468 36.5663 29.3214 35.4652 28.7183 34.5267C34.5863 33.5298 37.3284 30.2631 37.3284 24.3059C37.3284 21.9756 36.6478 19.9371 35.3056 18.2413C35.4415 17.8611 35.5367 17.46 35.5913 17.0465C35.7649 15.7173 35.5754 14.8736 35.4087 14.1288L35.3819 14.0079C35.2054 13.2152 34.997 12.6569 34.9881 12.634L34.878 12.3402L34.5774 12.3069C34.5774 12.3069 34.4008 12.2871 34.1319 12.2871C33.754 12.2871 33.1954 12.3257 32.6776 12.5111L32.4831 12.5798C31.7748 12.8309 31.1052 13.0673 30.1806 13.6465C29.8512 13.8527 29.4841 14.0954 29.0883 14.3694C27.5675 13.9517 25.9216 13.7392 24.1905 13.7392C22.4425 13.7392 20.7827 13.9527 19.251 14.3746C18.8512 14.0986 18.4822 13.8548 18.1508 13.6465C17.2262 13.0673 16.5566 12.8298 15.8482 12.5798L15.6538 12.5111C15.1369 12.3267 14.5774 12.2871 14.1994 12.2871C13.9306 12.2871 13.754 12.3069 13.754 12.3069L13.4544 12.3402L13.3423 12.635C13.3333 12.6579 13.125 13.2163 12.9484 14.009L12.9216 14.1298C12.754 14.8746 12.5645 15.7173 12.7391 17.0465C12.7947 17.4704 12.8939 17.8809 13.0347 18.2694C11.7183 19.9569 11.0516 21.985 11.0516 24.3059C11.0516 30.2465 13.7956 33.5121 19.6687 34.5204C19.2768 35.135 19.003 35.8277 18.8621 36.5663C18.5347 36.7017 18.2381 36.7913 17.9782 36.8329C17.7173 36.8746 17.4454 36.8954 17.1706 36.8954C16.4861 36.8954 15.8284 36.7611 15.4941 36.5527C15.0576 36.2808 14.4454 35.6006 13.9345 34.8183C13.5873 34.2871 12.8958 33.3423 12.1607 32.9902C11.5308 32.6881 10.873 32.5142 10.3542 32.5142C10.2451 32.5142 10.1458 32.5225 10.0585 32.5371C9.69545 32.5975 9.39585 32.7996 9.23712 33.0933C9.11013 33.3267 9.0893 33.5965 9.17859 33.8309C9.35617 34.2975 10.0139 34.7163 10.2887 34.8746C10.621 35.0663 11.2004 35.6496 11.5328 36.2121C11.7818 36.6329 11.8998 36.9381 12.0496 37.3236C12.1339 37.5413 12.2262 37.7788 12.3512 38.0652C12.6796 38.8142 13.6935 39.5986 14.2411 39.9433C14.9891 40.4142 16.378 40.5454 17.1399 40.5808L17.25 40.5829C17.5466 40.5829 18.0437 40.5361 18.7331 40.4423V43.7517C18.7331 44.5631 17.75 44.5954 17.5089 44.5954C17.4782 44.5954 18.0079 44.7871 18.0079 44.7871C19.9554 45.4579 22.0298 45.8329 24.1905 45.8329C26.3512 45.8329 28.4256 45.4579 30.372 44.7881C30.372 44.7881 30.9484 44.5756 30.9177 44.5798Z" fill="black"/>
<path d="M36.8333 24.3061C36.8333 21.8999 36.0576 19.9041 34.7331 18.3395C34.877 18.0009 35.0268 17.5468 35.1012 16.9759C35.2718 15.6739 35.0704 14.8926 34.8998 14.128C34.7292 13.3634 34.5278 12.8259 34.5278 12.8259C34.5278 12.8259 33.6131 12.728 32.8383 13.0051C32.0635 13.2822 31.3968 13.4936 30.4355 14.0957C29.9861 14.377 29.5337 14.6853 29.1756 14.9353C27.6449 14.4895 25.9613 14.2603 24.1905 14.2603C22.4038 14.2603 20.7054 14.4905 19.1637 14.9395C18.8046 14.6884 18.3492 14.378 17.8968 14.0947C16.9355 13.4926 16.2689 13.2811 15.4941 13.0041C14.7193 12.727 13.8046 12.8249 13.8046 12.8249C13.8046 12.8249 13.6032 13.3624 13.4326 14.127C13.2619 14.8916 13.0605 15.6728 13.2312 16.9749C13.3076 17.5603 13.4623 18.0228 13.6101 18.3634C12.3105 19.9186 11.5486 21.902 11.5486 24.3051C11.5486 30.5374 14.755 33.3822 20.5972 34.1332C19.9157 34.8895 19.4584 35.8582 19.3046 36.9363C18.9207 37.1134 18.4782 37.2801 18.0526 37.3468C16.9574 37.5207 15.7996 37.3468 15.2421 36.9999C14.6845 36.653 14.0228 35.8718 13.5268 35.1113C13.1082 34.4697 12.504 33.7249 11.9564 33.4624C11.2332 33.1155 10.5298 32.9853 10.1379 33.0499C9.74507 33.1155 9.55955 33.4186 9.64189 33.6363C9.72423 33.853 10.1171 34.1791 10.5308 34.4176C10.9445 34.6561 11.5853 35.3072 11.9574 35.9363C12.372 36.6384 12.4534 37.0436 12.8046 37.8457C13.0516 38.4103 13.8968 39.1155 14.499 39.4947C15.0159 39.8207 16.0486 40.0061 17.1657 40.0593C17.5516 40.078 18.4633 39.9593 19.2322 39.8447V43.7509C19.2322 44.4165 18.6518 44.9228 18.0506 44.8061C19.9802 45.4874 22.0407 45.8332 24.1905 45.8332C26.3393 45.8332 28.3998 45.4874 30.3314 44.8082C29.7312 44.9238 29.1508 44.4176 29.1508 43.752V37.7061C29.1508 36.3218 28.628 35.0707 27.7887 34.1384C33.5883 33.4072 36.8333 30.6301 36.8333 24.3061ZM11.5308 34.0905C11.378 34.0082 11.2957 33.8561 11.3472 33.7488C11.3988 33.6415 11.5655 33.6218 11.7183 33.704C11.8711 33.7863 11.9534 33.9384 11.9018 34.0457C11.8502 34.153 11.6836 34.1728 11.5308 34.0905ZM12.7332 34.877C12.6528 34.9686 12.4802 34.9395 12.3472 34.8124C12.2143 34.6853 12.1717 34.5072 12.252 34.4155C12.3324 34.3238 12.505 34.353 12.6379 34.4801C12.7709 34.6072 12.8135 34.7853 12.7332 34.877ZM13.4812 36.179C13.38 36.254 13.2084 36.1843 13.0982 36.0228C12.9881 35.8613 12.9812 35.6686 13.0824 35.5936C13.1836 35.5186 13.3552 35.5884 13.4653 35.7499C13.5744 35.9113 13.5824 36.104 13.4812 36.179ZM14.5556 37.1593C14.4871 37.2759 14.2927 37.2811 14.122 37.1718C13.9514 37.0624 13.8681 36.879 13.9365 36.7624C14.005 36.6457 14.1994 36.6405 14.3701 36.7499C14.5407 36.8593 14.624 37.0426 14.5556 37.1593ZM15.5715 38.1186C15.3601 38.0915 15.2034 37.953 15.2213 37.8093C15.2381 37.6655 15.4236 37.5718 15.634 37.5988C15.8453 37.6259 16.002 37.7645 15.9841 37.9082C15.9673 38.0509 15.7828 38.1457 15.5715 38.1186ZM17.2093 38.3676C16.9841 38.354 16.8086 38.2186 16.8175 38.0665C16.8264 37.9145 17.0159 37.8009 17.2411 37.8145C17.4663 37.828 17.6419 37.9634 17.633 38.1155C17.624 38.2686 17.4345 38.3811 17.2093 38.3676ZM18.755 38.2051C18.5149 38.2051 18.3205 38.0738 18.3205 37.9124C18.3205 37.7509 18.5149 37.6197 18.755 37.6197C18.9951 37.6197 19.1895 37.7509 19.1895 37.9124C19.1895 38.0738 18.9941 38.2051 18.755 38.2051Z" fill="white"/>
</g>
<defs>
<linearGradient id="paint0_linear_55_135" x1="4.34924" y1="24.4873" x2="44.0318" y2="24.4873" gradientUnits="userSpaceOnUse">
<stop stop-color="#4C4C4C"/>
<stop offset="1" stop-color="#343434"/>
</linearGradient>
<clipPath id="clip0_55_135">
<rect width="47.619" height="50" fill="white" transform="translate(0.380981)"/>
</clipPath>
</defs>
</svg>
