<svg width="102" height="102" viewBox="0 0 102 102" fill="none" xmlns="http://www.w3.org/2000/svg">
<g clip-path="url(#clip0_53_32)">
<path d="M1.12717 101.121L0 1.1272L99.9936 2.4911e-05L101.121 99.9937L1.12717 101.121Z" fill="#023047"/>
<path d="M85.5285 10.5805L14.6997 11.3789L21.7477 82.1372L51.0064 90.1413L80.0773 81.4797L85.5285 10.5805Z" fill="#E65100"/>
<path d="M50.1846 17.2292L50.9337 83.6833L74.1904 76.7541L78.7244 16.9075L50.1846 17.2292Z" fill="#FF6D00"/>
<path d="M50.5838 52.6437L50.4899 44.3109L68.4054 44.1089L67.2172 68.0821L50.821 73.684L50.7223 64.9345L59.2306 61.9218L59.7499 52.5403L50.5838 52.6437ZM68.9364 35.7691L69.4674 27.4292L50.302 27.6453L50.3959 35.9781L68.9364 35.7691Z" fill="white"/>
<path d="M50.7222 64.9345L50.8208 73.6839L34.3025 68.4531L33.34 57.0049L41.6728 56.911L42.1482 62.1143L50.7222 64.9345ZM40.1881 36.0931L50.3958 35.978L50.3018 27.6452L31.3447 27.8589L33.0848 52.8408L50.5836 52.6436L50.4897 44.3108L40.907 44.4188L40.1881 36.0931Z" fill="#EEEEEE"/>
</g>
<defs>
<clipPath id="clip0_53_32">
<rect width="100" height="100" fill="white" transform="translate(0 1.1272) rotate(-0.645836)"/>
</clipPath>
</defs>
</svg>
