<svg width="48" height="50" viewBox="0 0 48 50" fill="none" xmlns="http://www.w3.org/2000/svg">
<g clip-path="url(#clip0_55_126)">
<path d="M0 50V0H47.619V50H0Z" fill="#022232"/>
<path d="M41.6667 38.5416C41.6667 41.4187 39.4464 43.75 36.7063 43.75H10.9127C8.17362 43.75 5.95239 41.4187 5.95239 38.5416V11.4583C5.95239 8.58125 8.17362 6.25 10.9127 6.25H36.7063C39.4464 6.25 41.6667 8.58125 41.6667 11.4583V38.5416Z" fill="#0078D4"/>
<path opacity="0.05" d="M29.7619 38.5418V28.022C29.7619 26.2627 28.9494 25.2116 27.5873 25.2116C26.7788 25.2116 26.1845 25.6897 25.8224 26.6324C25.8056 26.6991 25.7818 26.971 25.7917 27.7929L25.7937 38.5418H18.8492V18.7502H25.7937V19.8554C26.8076 19.121 28.0506 18.7502 29.502 18.7502C34.0129 18.7502 36.7054 21.972 36.7054 27.3689L36.7064 38.5418H29.7619ZM10.9127 38.5418V18.7502H14.3423C12.3552 18.7502 10.9127 17.2168 10.9127 15.1033C10.9127 12.9918 12.379 11.4585 14.3988 11.4585C16.3949 11.4585 17.8165 12.9491 17.8572 15.0825C17.8572 17.2116 16.3899 18.7502 14.3701 18.7502H17.8572V38.5418H10.9127Z" fill="black"/>
<path opacity="0.07" d="M30.2579 38.0207V28.0217C30.2579 25.9665 29.2351 24.6905 27.5873 24.6905C26.3025 24.6905 25.6676 25.6405 25.3621 26.4373C25.2807 26.6446 25.2916 27.4675 25.2956 27.8186L25.2976 38.0207H19.3452V19.2707H25.2976V20.9769C26.0863 20.1196 27.3561 19.2707 29.5019 19.2707C33.7013 19.2707 36.2093 22.2977 36.2093 27.3686L36.2103 38.0207H30.2579ZM11.4087 38.0207V19.2707H17.3611V38.0207H11.4087ZM14.3422 18.229C12.6428 18.229 11.4087 16.9144 11.4087 15.103C11.4087 13.2925 12.6666 11.979 14.3988 11.979C16.1091 11.979 17.3263 13.2592 17.3611 15.0925C17.3611 16.9144 16.1031 18.229 14.37 18.229H14.3422Z" fill="black"/>
<path d="M11.9048 19.7917H16.8651V37.5H11.9048V19.7917ZM14.3701 17.7083H14.3423C12.8621 17.7083 11.9048 16.55 11.9048 15.1031C11.9048 13.625 12.8919 12.5 14.3988 12.5C15.9078 12.5 16.8373 13.625 16.8651 15.1031C16.8651 16.549 15.9078 17.7083 14.3701 17.7083ZM35.7143 37.5H30.754V28.0219C30.754 25.7323 29.5387 24.1698 27.5873 24.1698C26.0982 24.1698 25.2927 25.224 24.9018 26.2427C24.7589 26.6073 24.8016 27.6156 24.8016 28.125V37.5H19.8413V19.7917H24.8016V22.5167C25.5169 21.3542 26.6369 19.7917 29.502 19.7917C33.0516 19.7917 35.7133 22.1354 35.7133 27.3687L35.7143 37.5Z" fill="white"/>
</g>
<defs>
<clipPath id="clip0_55_126">
<rect width="47.619" height="50" fill="white"/>
</clipPath>
</defs>
</svg>
