<svg width="248" height="193" viewBox="0 0 248 193" fill="none" xmlns="http://www.w3.org/2000/svg">
<path d="M227.203 0H20.6549C9.25166 0 0 9.25166 0 20.6549V172.124C0 183.527 9.25166 192.779 20.6549 192.779H227.203C238.607 192.779 247.858 183.527 247.858 172.124V20.6549C247.858 9.25166 238.607 0 227.203 0ZM227.203 172.124H20.6549V20.6549H227.203V172.124ZM89.5044 96.3894C104.694 96.3894 117.044 84.0395 117.044 68.8495C117.044 53.6596 104.694 41.3097 89.5044 41.3097C74.3145 41.3097 61.9646 53.6596 61.9646 68.8495C61.9646 84.0395 74.3145 96.3894 89.5044 96.3894ZM50.9487 151.469H128.06C133.396 151.469 137.699 147.768 137.699 143.207V134.945C137.699 121.261 124.747 110.159 108.782 110.159C104.135 110.159 100.735 113.602 89.5044 113.602C77.9291 113.602 75.1321 110.159 70.2265 110.159C54.262 110.159 41.3097 121.261 41.3097 134.945V143.207C41.3097 147.768 45.6128 151.469 50.9487 151.469ZM154.911 123.929H203.106C205 123.929 206.549 122.38 206.549 120.487V113.602C206.549 111.708 205 110.159 203.106 110.159H154.911C153.018 110.159 151.469 111.708 151.469 113.602V120.487C151.469 122.38 153.018 123.929 154.911 123.929ZM154.911 96.3894H203.106C205 96.3894 206.549 94.8402 206.549 92.9469V86.0619C206.549 84.1686 205 82.6194 203.106 82.6194H154.911C153.018 82.6194 151.469 84.1686 151.469 86.0619V92.9469C151.469 94.8402 153.018 96.3894 154.911 96.3894ZM154.911 68.8495H203.106C205 68.8495 206.549 67.3004 206.549 65.4071V58.5221C206.549 56.6287 205 55.0796 203.106 55.0796H154.911C153.018 55.0796 151.469 56.6287 151.469 58.5221V65.4071C151.469 67.3004 153.018 68.8495 154.911 68.8495Z" fill="black"/>
</svg>
