<svg width="248" height="242" viewBox="0 0 248 242" fill="none" xmlns="http://www.w3.org/2000/svg">
<path d="M82.9026 194.589C82.9026 195.588 81.7533 196.388 80.3041 196.388C78.655 196.538 77.5057 195.738 77.5057 194.589C77.5057 193.589 78.655 192.79 80.1042 192.79C81.6034 192.64 82.9026 193.439 82.9026 194.589ZM67.3615 192.34C67.0117 193.339 68.0111 194.489 69.5103 194.789C70.8095 195.288 72.3087 194.789 72.6085 193.789C72.9083 192.79 71.9589 191.64 70.4597 191.191C69.1605 190.841 67.7113 191.341 67.3615 192.34ZM89.4489 191.491C87.9997 191.84 87.0003 192.79 87.1502 193.939C87.3001 194.939 88.5994 195.588 90.0985 195.238C91.5477 194.889 92.5471 193.939 92.3972 192.94C92.2473 191.99 90.8981 191.341 89.4489 191.491ZM122.33 0C53.0197 0 0 52.6199 0 121.93C0 177.349 34.8801 224.772 84.7016 241.462C91.0979 242.611 93.3467 238.664 93.3467 235.415C93.3467 232.317 93.1967 215.227 93.1967 204.733C93.1967 204.733 58.2167 212.229 50.8709 189.841C50.8709 189.841 45.1742 175.3 36.9789 171.552C36.9789 171.552 25.5354 163.706 37.7784 163.856C37.7784 163.856 50.2213 164.856 57.0674 176.749C68.0111 196.038 86.3507 190.491 93.4966 187.193C94.6459 179.198 97.8941 173.651 101.492 170.353C73.558 167.254 45.3741 163.207 45.3741 115.134C45.3741 101.392 49.1719 94.496 57.1673 85.701C55.8681 82.4529 51.6205 69.0605 58.4666 51.7704C68.9106 48.5223 92.9469 65.2627 92.9469 65.2627C102.941 62.4643 113.685 61.0151 124.329 61.0151C134.973 61.0151 145.717 62.4643 155.711 65.2627C155.711 65.2627 179.747 48.4723 190.191 51.7704C197.037 69.1105 192.79 82.4529 191.491 85.701C199.486 94.546 204.383 101.442 204.383 115.134C204.383 163.357 174.95 167.204 147.016 170.353C151.613 174.3 155.511 181.796 155.511 193.539C155.511 210.38 155.361 231.218 155.361 235.316C155.361 238.564 157.66 242.511 164.006 241.362C213.978 224.772 247.858 177.349 247.858 121.93C247.858 52.6199 191.64 0 122.33 0ZM48.5722 172.351C47.9226 172.851 48.0725 174.001 48.922 174.95C49.7216 175.75 50.8709 176.099 51.5206 175.45C52.1702 174.95 52.0203 173.801 51.1708 172.851C50.3712 172.052 49.2219 171.702 48.5722 172.351ZM43.1753 168.304C42.8255 168.953 43.3252 169.753 44.3247 170.253C45.1242 170.752 46.1236 170.602 46.4734 169.903C46.8232 169.253 46.3235 168.454 45.3241 167.954C44.3247 167.654 43.5251 167.804 43.1753 168.304ZM59.3661 186.094C58.5665 186.743 58.8664 188.242 60.0157 189.192C61.165 190.341 62.6142 190.491 63.2638 189.692C63.9135 189.042 63.6136 187.543 62.6142 186.593C61.5148 185.444 60.0157 185.294 59.3661 186.094ZM53.6693 178.748C52.8698 179.248 52.8698 180.547 53.6693 181.696C54.4689 182.846 55.8181 183.345 56.4677 182.845C57.2673 182.196 57.2673 180.897 56.4677 179.747C55.7681 178.598 54.4689 178.098 53.6693 178.748Z" fill="black"/>
</svg>
