<svg width="248" height="248" viewBox="0 0 248 248" fill="none" xmlns="http://www.w3.org/2000/svg">
<path d="M230.154 0H17.6488C7.91155 0 0 8.0222 0 17.8701V229.988C0 239.836 7.91155 247.858 17.6488 247.858H230.154C239.891 247.858 247.858 239.836 247.858 229.988V17.8701C247.858 8.0222 239.891 0 230.154 0ZM74.9108 212.45H38.1746V94.164H74.9661V212.45H74.9108ZM56.5427 78.009C44.7583 78.009 35.2424 68.4377 35.2424 56.7087C35.2424 44.9796 44.7583 35.4083 56.5427 35.4083C68.2717 35.4083 77.843 44.9796 77.843 56.7087C77.843 68.493 68.327 78.009 56.5427 78.009ZM212.616 212.45H175.88V154.911C175.88 141.191 175.603 123.542 156.793 123.542C137.65 123.542 134.718 138.48 134.718 153.916V212.45H97.9815V94.164H133.224V110.319H133.722C138.646 101.024 150.651 91.2318 168.522 91.2318C205.7 91.2318 212.616 115.741 212.616 147.608V212.45Z" fill="black"/>
</svg>
